<svg width="43" height="39" viewBox="0 0 43 39" fill="none" xmlns="http://www.w3.org/2000/svg">
<path d="M30.3989 1.38042C30.2575 1.30969 30.1514 1.20359 30.0099 1.13285C29.727 0.956021 29.444 0.743821 29.1257 0.602354C27.9233 0.071855 26.7208 0.177955 25.6244 0.885287C24.811 1.45115 23.9976 2.05239 23.1841 2.61825C22.8305 2.86582 22.4768 3.11338 22.1585 3.36095C21.5219 3.82072 20.8853 3.82072 20.2487 3.32558C19.6475 2.86582 19.0109 2.44142 18.3743 1.98165L17.6316 1.45115C17.0657 1.02675 16.4291 1.13285 15.8986 1.23895L5.57156 8.77205L5.50083 8.94888C5.46546 9.05498 5.39473 9.12571 5.35936 9.23181C5.14716 9.65621 5.11179 10.116 5.25326 10.6111C5.57156 11.6721 5.92523 12.6977 6.24353 13.7587C6.42036 14.3246 6.20816 14.9612 5.71303 15.3149C5.07643 15.7746 4.4752 16.199 3.8386 16.6588L2.42393 17.6844C0.832433 18.8515 0.3373 20.6552 1.11537 22.4589V22.4943V22.6004L11.1595 36.4641L11.1949 36.4995C11.301 36.5702 11.4424 36.6409 11.5485 36.7471C11.7961 36.9239 12.079 37.1007 12.3973 37.2422C13.3876 37.7373 14.484 37.7019 15.5803 37.2068C15.6157 37.2068 15.651 37.1714 15.651 37.1714H15.7218L39.7711 19.8064L39.8065 19.7711C39.8772 19.665 39.9479 19.5235 40.054 19.4174C40.2309 19.1698 40.4077 18.8869 40.5492 18.604C41.0089 17.6491 41.0089 16.5881 40.5492 15.4563C40.5492 15.421 40.5492 15.421 40.5138 15.3856L40.4784 15.2795L30.4697 1.41579L30.3989 1.38042ZM12.6449 27.0566C12.9278 27.481 12.8571 28.0469 12.4327 28.3652C12.0083 28.6481 11.4424 28.5774 11.1241 28.153L6.27889 21.4333C5.99596 21.0089 6.06669 20.443 6.49109 20.1247C6.91549 19.8418 7.48136 19.9125 7.79966 20.3369L12.6449 27.0566ZM14.5193 31.1591C15.0145 30.8055 15.7572 30.9116 16.1108 31.4067C16.4645 31.9018 16.3584 32.6445 15.8632 32.9982C15.3681 33.3519 14.6254 33.2458 14.2718 32.7506C13.9181 32.2201 14.0242 31.5128 14.5193 31.1591ZM13.2108 23.3785C10.3814 19.4528 11.2656 13.9709 15.1559 11.1416C19.0462 8.31228 24.5634 9.19644 27.3928 13.0868C30.2221 17.0125 29.3733 22.4943 25.4476 25.359C25.4476 25.359 25.4476 25.359 25.4122 25.359C23.5378 26.7029 21.239 27.2688 18.9048 26.8798C16.6059 26.5261 14.5547 25.2529 13.2108 23.3785ZM8.15332 10.0099L16.6767 3.85608C16.9242 3.67925 17.2425 3.74998 17.4194 3.96218C17.5962 4.20975 17.5255 4.52805 17.3133 4.70488L8.78992 10.894C8.54236 11.0709 8.22406 11.0001 8.04722 10.7879C7.87039 10.5404 7.90576 10.1867 8.15332 10.0099ZM32.9807 12.3441C33.2636 12.7685 33.1929 13.3343 32.7685 13.6526C32.3441 13.9356 31.7782 13.8648 31.4599 13.4404L26.6147 6.72078C26.3318 6.29638 26.4025 5.73052 26.8269 5.41222C27.2513 5.12928 27.8172 5.20002 28.1355 5.62442L32.9807 12.3441ZM34.8551 16.4112C35.3503 16.0576 36.093 16.1637 36.4466 16.6588C36.8003 17.1539 36.6942 17.8966 36.1991 18.2503C35.7039 18.604 34.9612 18.4979 34.6076 18.0027C34.2539 17.5076 34.36 16.8003 34.8551 16.4112Z" fill="#0F7794"/>
<path d="M24.0683 23.4138C26.933 21.3626 27.5696 17.3308 25.483 14.5015C23.4317 11.6368 19.3999 11.0002 16.5706 13.0868C13.7059 15.1381 13.0693 19.1698 15.1559 21.9992C17.2072 24.8285 21.2036 25.4651 24.0683 23.4138Z" fill="#2ADFC0"/>
<path d="M14.9337 38.3032C14.3325 38.3032 13.7666 38.1617 13.2008 37.9142C12.8825 37.7373 12.5642 37.5605 12.3166 37.3836C12.2105 37.3129 12.1044 37.2422 11.9629 37.1715C11.9276 37.1715 11.9276 37.1361 11.8922 37.1007L11.8568 37.0654C11.8215 37.03 11.8215 37.03 11.7861 36.9946L1.74198 23.0955C1.70661 23.0248 1.67125 22.9894 1.67125 22.9187V22.848C0.822448 20.8674 1.38831 18.8162 3.15665 17.543L4.57131 16.5173C5.20791 16.0576 5.80914 15.6332 6.44574 15.1734C6.79941 14.9258 6.94088 14.5014 6.79941 14.1124C6.48111 13.0514 6.12744 12.0258 5.80914 10.9648C5.59694 10.3282 5.66768 9.76231 5.95061 9.23182C5.98598 9.16108 6.02134 9.05498 6.09208 8.98425L6.19818 8.80742C6.23354 8.73668 6.26891 8.66595 6.33964 8.63058L16.6313 1.09749C16.7021 1.06212 16.7374 1.02676 16.8082 1.02676C17.2679 0.920658 18.1167 0.743825 18.8948 1.30969L19.7082 1.87556C20.3095 2.29996 20.9107 2.72436 21.4766 3.14876C21.9717 3.50242 22.3607 3.50242 22.8205 3.18412C23.1034 2.97192 23.3864 2.75972 23.6693 2.58289L23.8461 2.44142C24.5535 1.91092 25.4376 1.27432 26.2864 0.708458C27.4889 -0.104974 28.8682 -0.211074 30.2121 0.354792C30.5658 0.496258 30.8841 0.743825 31.2024 0.920658C31.3085 0.991391 31.4499 1.09749 31.556 1.16822C31.5914 1.16822 31.5914 1.20359 31.6268 1.23896L31.6621 1.27432C31.6975 1.30969 31.6975 1.30969 31.7329 1.34506L41.777 15.2088C41.8124 15.2441 41.8477 15.3149 41.8477 15.3856L41.8831 15.4563L41.4233 15.5978L41.8831 15.4917C42.4136 16.6942 42.3782 17.8966 41.8477 18.993C41.7063 19.3113 41.4941 19.5942 41.3172 19.8772L41.2819 19.9125C41.2111 20.0186 41.1404 20.1247 41.0697 20.2308C41.0343 20.2662 40.9636 20.3369 40.9282 20.3723L16.9143 37.7727C16.8789 37.8081 16.8082 37.8434 16.7728 37.8434L16.6667 37.8788C16.1362 38.1617 15.535 38.3032 14.9337 38.3032ZM12.5288 36.358C12.6349 36.4288 12.741 36.4995 12.8471 36.5702C13.0947 36.7471 13.3422 36.9239 13.6252 37.03C14.5093 37.4544 15.4289 37.4544 16.3838 36.9946C16.4191 36.9593 16.4545 36.9593 16.5252 36.9593L40.3977 19.665C40.4684 19.5589 40.5392 19.4528 40.5745 19.382L40.6099 19.3467C40.7867 19.0991 40.9636 18.8515 41.0697 18.5686C41.4941 17.7198 41.4587 16.8003 41.0697 15.81C41.0343 15.7746 41.0343 15.7039 41.0343 15.6685L31.0609 1.98166C30.9548 1.91092 30.8133 1.84019 30.7072 1.73409C30.4597 1.55726 30.1768 1.38042 29.8938 1.23896C28.8328 0.779192 27.7718 0.885291 26.8523 1.48652C26.0035 2.05239 25.1547 2.68899 24.4474 3.21949L24.2705 3.36096C23.9876 3.57316 23.7047 3.78536 23.4217 3.99755C22.6083 4.56342 21.7595 4.56342 20.9461 3.96219C20.3448 3.53779 19.779 3.11339 19.1777 2.68899L18.3643 2.12312C18.0106 1.87556 17.6216 1.87556 17.1265 1.98166L6.90551 9.30255L6.87014 9.37328C6.83477 9.47938 6.76404 9.55011 6.72867 9.65621C6.55184 9.97451 6.55184 10.2928 6.65794 10.6818C7.01161 11.7428 7.32991 12.7685 7.64821 13.8295C7.89577 14.6075 7.61284 15.4563 6.94087 15.9161C6.30428 16.3759 5.70304 16.8356 5.06644 17.26L3.65178 18.2857C2.27248 19.3113 1.84808 20.9028 2.52005 22.4943C2.55541 22.5297 2.55541 22.565 2.55541 22.6358L12.5288 36.358ZM16.1716 33.8824C16.1008 33.8824 15.9947 33.8824 15.924 33.847C15.4996 33.7763 15.1106 33.5641 14.863 33.2104C14.3325 32.5031 14.5093 31.4774 15.2167 30.9469C15.924 30.4164 16.9496 30.5933 17.4801 31.3006C17.7277 31.6543 17.8338 32.0787 17.7631 32.5031C17.6923 32.9275 17.4801 33.3165 17.1265 33.5641C16.8435 33.7763 16.5252 33.8824 16.1716 33.8824ZM15.7825 31.725C15.4996 31.9372 15.4289 32.3616 15.6411 32.6445C15.7472 32.786 15.8886 32.8921 16.0655 32.8921C16.2423 32.9275 16.4191 32.8921 16.5606 32.786C16.7021 32.6799 16.8082 32.5384 16.8435 32.3616C16.8789 32.1848 16.8435 32.0079 16.7374 31.8665C16.4899 31.5835 16.0655 31.5128 15.7825 31.725ZM12.8471 29.214C12.7764 29.214 12.7056 29.214 12.6349 29.1786C12.2812 29.1079 11.9276 28.931 11.7154 28.6127L6.87014 21.9284C6.65794 21.6101 6.55184 21.2565 6.62258 20.8674C6.69331 20.5138 6.87014 20.1601 7.18844 19.9479C7.50674 19.7357 7.86041 19.6296 8.24944 19.7003C8.60311 19.7711 8.95677 19.9479 9.16897 20.2662L14.0142 26.9505C14.474 27.5871 14.3325 28.4713 13.6959 28.8957C13.4483 29.1079 13.1654 29.214 12.8471 29.214ZM8.00187 20.6552C7.89577 20.6552 7.82504 20.6906 7.75431 20.726C7.64821 20.7967 7.57747 20.9028 7.57747 21.0089C7.54211 21.115 7.57747 21.2565 7.64821 21.3626L12.4934 28.0469C12.5642 28.153 12.6703 28.2237 12.7764 28.2237C12.8825 28.2591 13.0239 28.2237 13.13 28.153C13.3422 28.0115 13.3776 27.7286 13.2361 27.5164L8.39091 20.8674C8.32017 20.7613 8.21407 20.6906 8.10797 20.6906C8.07261 20.6552 8.03724 20.6552 8.00187 20.6552ZM21.2997 27.6932C20.8046 27.6932 20.3095 27.6578 19.8143 27.5871C17.374 27.1981 15.2167 25.8895 13.7666 23.8736C10.7958 19.7357 11.7154 13.9356 15.8179 10.9648C15.8179 10.9648 15.8533 10.9648 15.8533 10.9294C19.9558 7.95862 25.7206 8.87815 28.7267 13.016C31.7329 17.1539 30.8133 22.9541 26.6755 25.9602C25.1193 27.092 23.2449 27.6932 21.2997 27.6932ZM21.229 10.1513C19.5314 10.1513 17.8338 10.6465 16.3838 11.7075C12.7056 14.3953 11.8568 19.5942 14.5447 23.3077C15.8533 25.1114 17.7631 26.2785 19.9558 26.6322C22.1485 26.9859 24.3413 26.4554 26.1096 25.1822C29.8231 22.4589 30.6719 17.26 27.9487 13.5819C26.3572 11.3184 23.8108 10.1513 21.229 10.1513ZM36.5074 19.1698C36.4366 19.1698 36.3305 19.1698 36.2598 19.1345C35.8354 19.0637 35.4464 18.8515 35.1988 18.4979C34.9512 18.1442 34.8451 17.7198 34.9159 17.2954C34.9866 16.871 35.1988 16.482 35.5525 16.2344C35.9061 15.9868 36.3305 15.8807 36.7549 15.9515C37.1793 16.0222 37.5684 16.2344 37.8159 16.5881C38.0635 16.9417 38.1696 17.3661 38.0989 17.7905C38.0281 18.2149 37.8159 18.604 37.4623 18.8515C37.1793 19.0637 36.8257 19.1698 36.5074 19.1698ZM36.1183 17.0125C35.9769 17.1186 35.8708 17.26 35.8354 17.4369C35.8 17.6137 35.8354 17.7905 35.9415 17.932C36.1537 18.2149 36.5781 18.2857 36.861 18.0735C37.0025 17.9674 37.1086 17.8259 37.1086 17.6491C37.144 17.4722 37.1086 17.2954 37.0025 17.1539C36.8257 16.871 36.4013 16.8003 36.1183 17.0125ZM33.1829 14.5014C32.7585 14.5014 32.3341 14.2892 32.0512 13.9356L27.206 7.21592C26.9938 6.89762 26.8877 6.54395 26.9584 6.15492C27.0291 5.80125 27.206 5.44759 27.5243 5.23539C27.8426 5.02319 28.1962 4.91709 28.5852 4.98782C28.9389 5.05855 29.2926 5.23539 29.5048 5.55369L34.35 12.238C34.8098 12.8746 34.6683 13.7587 34.0317 14.1831C33.7488 14.3953 33.4658 14.5014 33.1829 14.5014ZM28.3377 5.94272C28.2316 5.94272 28.1609 5.97809 28.0901 6.01345C27.984 6.08419 27.9133 6.19029 27.9133 6.29639C27.8779 6.40249 27.9133 6.54395 27.984 6.65005L32.8292 13.3343C32.9707 13.5465 33.2536 13.5819 33.4658 13.4404C33.678 13.299 33.7134 13.016 33.5719 12.8038L28.7267 6.11955C28.656 6.01345 28.5499 5.94272 28.4438 5.94272C28.3731 5.94272 28.3731 5.94272 28.3377 5.94272ZM9.13361 10.7172C8.99214 10.7172 8.85067 10.6465 8.74457 10.505C8.60311 10.2928 8.63847 10.0099 8.85067 9.83305L17.374 3.67926C17.5862 3.53779 17.8692 3.57316 18.046 3.78535C18.1875 3.99755 18.1521 4.28049 17.9399 4.45732L9.38117 10.6111C9.31044 10.6818 9.20434 10.7172 9.13361 10.7172Z" fill="black"/>
<path d="M21.2997 25.3236C20.946 25.3236 20.557 25.2883 20.2034 25.2529C18.3997 24.97 16.8082 23.9797 15.7118 22.4943C14.6508 21.0089 14.191 19.2052 14.5093 17.3661C14.7923 15.5624 15.7825 13.9709 17.2679 12.8746C20.3448 10.6465 24.6242 11.3538 26.8523 14.3953C29.0804 17.4722 28.373 21.7516 25.3315 23.9797C24.129 24.8639 22.7144 25.3236 21.2997 25.3236ZM21.2643 12.5209C20.0619 12.5209 18.8594 12.8746 17.7984 13.6526C16.5252 14.5722 15.6764 15.9515 15.4289 17.5076C15.1813 19.0637 15.535 20.6199 16.4899 21.9284C17.4094 23.2016 18.7887 24.0504 20.3448 24.298C21.9009 24.5456 23.4571 24.1919 24.7656 23.237C27.4181 21.3272 27.984 17.6137 26.0742 14.9612C24.9071 13.3697 23.1034 12.5209 21.2643 12.5209Z" fill="black"/>
</svg>
