<svg width="98" height="70" viewBox="0 0 98 70" fill="none" xmlns="http://www.w3.org/2000/svg">
<mask id="mask0_1543_219" style="mask-type:alpha" maskUnits="userSpaceOnUse" x="0" y="0" width="71" height="70">
<rect x="0.704956" width="70" height="70" fill="#D9D9D9"/>
</mask>
<g mask="url(#mask0_1543_219)">
<path d="M55.7128 13.1012C55.7128 13.1012 63.6921 17.7724 59.1406 29.4786C54.6452 41.1848 40.8782 54.4105 40.8782 54.4105L55.7128 13.1012Z" fill="#EBBB01"/>
<path d="M46.498 4.60321C46.498 4.60321 59.3098 3.30877 58.0735 19.461C56.7811 35.557 40.8788 54.4107 40.8788 54.4107H38.9121L46.498 4.60321Z" fill="#0C62D1"/>
<path d="M18.2895 8.37383C18.2895 8.37383 11.2655 10.1748 11.4341 22.5C11.6026 34.8253 28.7974 54.3543 28.7974 54.3543L18.2895 8.37383Z" fill="#0C62D1"/>
<path d="M28.7977 4.43436C28.7977 4.43436 21.7737 -1.53128 16.4917 8.59905C11.2658 18.7294 28.7977 54.4107 28.7977 54.4107H32.0568L28.7977 4.43436Z" fill="#F4BD0F"/>
<path d="M37.6757 2.23935C37.6757 2.23935 30.8203 -5.52724 24.302 7.86731C17.7838 21.2619 32.0565 54.4106 32.0565 54.4106H35.6528L37.6757 2.23935Z" fill="#FA6142"/>
<path d="M37.6753 2.2394C37.6753 2.2394 45.9917 -4.45788 49.9813 8.37388C53.9709 21.2056 38.9677 54.3543 38.9677 54.3543H35.7086L37.6753 2.2394Z" fill="#EBBB01"/>
<path d="M32.2249 64.372V67.8613C32.2249 69.0432 33.1801 70 34.3602 70H35.6526C36.8326 70 37.7879 69.0432 37.7879 67.8613V64.372H32.2249Z" fill="#0C62D1"/>
<path d="M28.7977 54.4107C28.9101 54.9735 32.2254 64.3722 32.2254 64.3722" stroke="#353140" stroke-width="0.25" stroke-miterlimit="10"/>
<path d="M40.8782 54.4107L37.8439 64.3722" stroke="#353140" stroke-width="0.25" stroke-miterlimit="10"/>
</g>
<mask id="mask1_1543_219" style="mask-type:alpha" maskUnits="userSpaceOnUse" x="58" y="18" width="40" height="41">
<rect x="58.2385" y="18.6291" width="39.5161" height="39.5161" fill="#D9D9D9"/>
</mask>
<g mask="url(#mask1_1543_219)">
<path d="M89.2918 26.0249C89.2918 26.0249 93.7962 28.6619 91.2268 35.2702C88.6891 41.8785 80.9174 49.3446 80.9174 49.3446L89.2918 26.0249Z" fill="#EBBB01"/>
<path d="M84.0903 21.2277C84.0903 21.2277 91.3228 20.4969 90.6249 29.6151C89.8953 38.7016 80.9182 49.3448 80.9182 49.3448H79.808L84.0903 21.2277Z" fill="#0C62D1"/>
<path d="M68.1656 23.3563C68.1656 23.3563 64.2005 24.373 64.2957 31.3308C64.3908 38.2886 74.0975 49.313 74.0975 49.313L68.1656 23.3563Z" fill="#0C62D1"/>
<path d="M74.0977 21.1324C74.0977 21.1324 70.1326 17.7647 67.1508 23.4834C64.2007 29.2021 74.0977 49.3448 74.0977 49.3448H75.9376L74.0977 21.1324Z" fill="#F4BD0F"/>
<path d="M79.1095 19.8933C79.1095 19.8933 75.2395 15.5089 71.5598 23.0704C67.8802 30.6318 75.9374 49.3448 75.9374 49.3448H77.9675L79.1095 19.8933Z" fill="#FA6142"/>
<path d="M79.1088 19.8935C79.1088 19.8935 83.8036 16.1127 86.0558 23.3565C88.308 30.6002 79.8384 49.3132 79.8384 49.3132H77.9986L79.1088 19.8935Z" fill="#EBBB01"/>
<path d="M76.0321 54.968V56.9378C76.0321 57.605 76.5714 58.1451 77.2375 58.1451H77.9671C78.6333 58.1451 79.1725 57.605 79.1725 56.9378V54.968H76.0321Z" fill="#0C62D1"/>
<path d="M74.0972 49.3449C74.1607 49.6626 76.0322 54.9684 76.0322 54.9684" stroke="#353140" stroke-width="0.25" stroke-miterlimit="10"/>
<path d="M80.9172 49.3449L79.2042 54.9683" stroke="#353140" stroke-width="0.25" stroke-miterlimit="10"/>
</g>
</svg>
