<svg width="60" height="84" viewBox="0 0 60 84" fill="none" xmlns="http://www.w3.org/2000/svg">
<g clip-path="url(#clip0_1543_177)">
<path d="M3.84615 70.9655C3 73.0998 3.07692 74.5481 5.92308 75.4628C5.92308 75.4628 33.6923 84.3049 34.6923 83.5427C35.6923 82.7804 36.3077 82.8566 36.9231 80.6461C37.4615 78.4356 61.2308 10.824 59.5385 9.37569C57.7692 7.77497 27.2308 1.04904e-05 26.0769 0.533586C22.6923 1.90564 4.38461 69.5935 3.84615 70.9655Z" fill="#FEF7BD" stroke="#694042" stroke-width="1.2577" stroke-miterlimit="10"/>
<path d="M49 9.14703L26 80.3412L30.9231 81.7133L52.9231 9.83306L49 9.14703Z" fill="#37AF9F"/>
<path d="M49.2308 9.60437L26.7692 79.8076L30.6923 80.8748L52.3077 10.3666L49.2308 9.60437Z" fill="#FCFBF6"/>
<path d="M30.9231 1.82941C28.4615 1.29584 26.7692 0.838489 26.4615 0.914714C23.0769 2.28676 4.76923 69.5935 4.23077 70.9655C3.38461 73.0998 3.46153 74.167 6.30769 75.0817C6.30769 75.0817 6.76923 74.853 7.53846 75.0817C12.2308 58.6933 28.6154 8.91834 30.9231 1.82941Z" fill="#90B8DA"/>
<path d="M31.5385 82.628C33.3077 83.0853 34.4615 83.2378 34.6923 83.0853C35.6923 82.3231 36.3077 82.7804 36.9231 80.5699C37.3846 78.4356 60.7692 11.4338 59.0769 9.90928C58.6923 9.60438 57.2308 8.68968 54.6154 7.92743C50.1538 21.0381 35 70.8893 31.5385 82.628Z" fill="#90B8DA"/>
<path d="M0.461533 63.1143C0.461533 63.1143 17.8461 12.4247 19.9231 12.2722C21.9231 12.1198 58.7692 23.4011 59.5385 25.9165C60.3077 28.4319 42.3077 75.3866 40.3846 76.6824C38.3846 78.0544 -0.0769281 64.029 0.461533 63.1143Z" fill="#388984" stroke="#694042" stroke-width="1.2577" stroke-miterlimit="10"/>
<path d="M4.46153 64.4864C14.2308 68.5263 38.7692 77.7495 40.3077 76.6824C42.3077 75.3865 60.2308 28.4319 59.4615 25.9165C58.8461 23.5535 26.6154 13.9492 20.7692 12.7296C18 21.5717 8.84615 50.3847 4.46153 64.4864Z" fill="#00A28A"/>
<path d="M21.6154 61.3611C17.9231 58.1597 17.6154 52.4428 21 48.6316C24.3846 44.8203 30.1538 44.363 33.8461 47.5644C37.5385 50.7659 37.8461 56.4827 34.4615 60.294C31.0769 64.1052 25.3077 64.5626 21.6154 61.3611ZM33.5385 47.8693C30 44.8203 24.5385 45.2777 21.3077 48.8602C18.0769 52.519 18.3846 57.931 21.9231 61.0562C25.4615 64.1052 30.9231 63.6479 34.1538 60.0653C37.3846 56.4065 37.0769 50.9945 33.5385 47.8693Z" fill="#FFF3A2"/>
<path d="M33.1538 49.2413C33.7692 49.9274 33.3077 53.205 34.1538 52.8239C34.7692 52.5952 35.0769 50.7658 35.6154 50.156C35.1538 49.2413 34.5384 48.4791 33.6923 47.7168C30.6923 45.1252 26.3077 44.9727 23 47.107C23.3077 47.2595 23.6154 47.4119 23.7692 47.5644C24.0769 47.9455 24.2308 48.1742 24.4615 47.9455C24.6923 47.7168 25 46.7259 25.7692 46.5735C26.4615 46.3448 27.2308 47.3357 27.6923 46.8784C28.0769 46.421 28.7692 45.8112 29.5384 46.0399C30.3077 46.2686 30.7692 48.8602 31.3846 49.1651C32 49.47 32.5384 48.5553 33.1538 49.2413Z" fill="#FFF3A2"/>
<path d="M33.3077 58.5408C33.8461 58.5408 35.0769 57.6261 36.3077 56.4065C36.6923 54.882 36.6923 53.3575 36.3077 51.833C35.7692 52.7477 34.8461 53.7386 34.3077 54.5771C33.3846 56.1016 32.1538 58.5408 33.3077 58.5408Z" fill="#FFF3A2"/>
<path d="M30.8461 60.98C31.0769 60.4464 30.9231 59.5317 30.3846 58.9982C29.8461 58.4646 28.3077 59.3031 26.9231 58.9219C25.5385 58.5408 26.6154 58.1597 26.5385 57.5499C26.3846 57.0163 24.7692 57.0925 24.1538 56.4065C23.6154 55.7205 25.0769 55.0345 25.9231 54.5771C26.7692 54.1198 28 57.0925 28 57.0925C28 57.0925 29 56.3303 29.3846 55.7967C29.7692 55.2631 28.9231 55.0345 28.8461 54.5009C28.7692 53.9673 29.7692 53.1288 29.7692 52.4428C29.7692 51.833 29 51.2232 28.5385 50.7659C28.0769 50.3085 27.0769 50.9945 26.6154 50.5372C26.0769 50.0798 26.6923 49.6987 26.4615 49.0889C26.3077 48.7078 26.1538 48.8602 26.0769 49.0127C26.1538 48.8602 26.2308 48.5553 25.9231 48.2504C25.5385 47.7931 24.3077 49.3176 24.3846 49.7749C24.3846 50.2323 24.9231 49.5463 25.1538 50.2323C25.3077 50.9183 22.8461 51.9092 22.3846 53.1288C21.9231 54.2722 23.1538 55.7205 23.6923 56.4827C24.2308 57.1688 25.9231 57.3974 26.0769 57.7786C26.3077 58.1597 25.1538 58.617 25.7692 59.2268C26.3846 59.8366 26.9231 60.4464 27.0769 60.9038C27.2308 61.3611 25.5385 62.9619 26.1538 63.1905C26.6923 63.4954 30.6154 61.5136 30.8461 60.98ZM28.0769 51.2232C28.8461 51.0708 28.2308 53.3575 27.7692 53.3575C27.3077 53.4337 26 51.6043 28.0769 51.2232Z" fill="#FFF3A2"/>
<path d="M23.3077 22.4864C23 22.7913 22.6923 23.02 22.5384 23.0962C22.2308 23.2486 22.0769 23.3249 22.0769 23.3249C21.9231 23.4011 21.6923 23.4011 21.5384 23.4011C21.4615 23.4773 21.4615 23.6298 21.3846 23.706C21.3846 23.7822 21.3077 23.9347 21.2308 24.1633C21.1538 24.3158 21.1538 24.4682 21.0769 24.6207C20.9231 24.9256 20.7692 25.1543 20.5384 25.3067L20.3846 25.1543C20.3077 25.078 20.3077 25.0018 20.3077 24.9256C20.3846 24.6207 20.4615 24.2396 20.6154 23.8584C20.6923 23.6298 20.8461 23.2486 21.0769 22.7151C21.3077 22.1815 21.4615 21.8004 21.5384 21.5717C21.6923 21.1906 21.7692 20.8094 21.8461 20.5045C21.7692 20.5045 21.7692 20.5045 21.7692 20.4283C21.7692 20.3521 21.7692 20.2759 21.6923 20.2759C21.7692 20.1234 21.8461 20.0472 21.9231 20.1234C22 20.1234 22.1538 20.1996 22.3846 20.2759C23 20.5808 23.3846 21.0381 23.4615 21.6479C23.5384 21.8004 23.4615 22.029 23.3846 22.1815C23.5384 22.1815 23.4615 22.3339 23.3077 22.4864ZM23.0769 21.8004C23.1538 21.6479 23.1538 21.4192 23 21.2668C23 21.2668 22.8461 21.1143 22.5384 20.8857C22.2308 21.8004 22 22.4102 21.8461 22.7913C22.4615 22.4864 22.8461 22.1815 23.0769 21.8004Z" fill="#FFF3A2" stroke="#FFF3A2" stroke-width="0.452" stroke-miterlimit="10"/>
<path d="M27 26.2976C27 26.3739 27 26.4501 27 26.5263C27 26.6025 26.9231 26.6788 26.7692 26.755C26.6923 26.8312 26.6154 26.8312 26.5385 26.8312C26.3077 26.6788 26.2308 26.4501 26.3077 26.069C26.3846 25.6878 26.3846 25.3067 26.3846 25.078C26.2308 25.0018 26.0769 25.0018 25.8461 24.9256C25.6154 24.8494 25.4615 24.9256 25.3077 24.9256C25.2308 25.078 25 25.3067 24.7692 25.6878C24.5385 25.9927 24.3846 26.2976 24.2308 26.4501C24.1538 26.5263 24.0769 26.5263 23.9231 26.4501C23.7692 26.3739 23.6923 26.2214 23.7692 26.1452C23.8461 25.9927 24 25.6878 24.2308 25.4592C24.5385 25.1543 24.6923 24.9256 24.7692 24.7731C24.7692 24.6969 24.7692 24.6969 24.7692 24.6207C24.6923 24.5445 24.6923 24.4682 24.6923 24.4682C24.6923 24.4682 24.6923 24.392 24.7692 24.392C24.7692 24.392 24.8461 24.392 24.9231 24.392C25 24.392 25.0769 24.392 25.0769 24.392C25.2308 24.1633 25.5385 23.7822 26 23.1724C26.3846 22.6388 26.6923 22.2577 26.9231 22.029C27 21.9528 27.0769 21.9528 27.1538 21.9528C27.2308 21.9528 27.3077 22.029 27.3077 22.1053C27.3846 22.2577 27.3846 22.4864 27.3846 22.7151C27.3077 22.9437 27.3077 23.1724 27.2308 23.3249C27.1538 24.392 27.0769 25.4592 27 26.2976ZM26.4615 24.5445C26.5385 24.392 26.5385 24.1633 26.6154 23.9347C26.6154 23.706 26.6923 23.4773 26.6923 23.3249C26.3846 23.706 26.0769 24.0109 25.8461 24.392C25.9231 24.3158 26.1538 24.392 26.4615 24.5445Z" fill="#FFF3A2" stroke="#FFF3A2" stroke-width="0.452" stroke-miterlimit="10"/>
<path d="M31.8461 23.3248C31.8461 23.4011 31.6923 23.4773 31.5385 23.4773C31.4615 23.4773 31.4615 23.4773 31.3846 23.4773C31.3077 23.4011 31.3077 23.4011 31.3077 23.4011H31.2308C30.8461 23.5535 30.6154 23.8584 30.4615 24.2395C30.3846 24.392 30.3846 24.5444 30.3846 24.6969C30.3846 24.7731 30.3846 25.2305 30.5385 26.0689C30.6154 26.6025 30.5385 27.0599 30.4615 27.3648C30.3846 27.6697 30.2308 27.8983 30 28.0508C29.9231 28.127 29.7692 28.2032 29.5385 28.2795C29.3846 28.3557 29.2308 28.3557 29.0769 28.2795C29 28.2795 29 28.2795 28.9231 28.2032C28.7692 28.0508 28.7692 27.9746 28.7692 27.8983C28.7692 27.8221 28.8461 27.7459 28.9231 27.7459C28.9231 27.7459 29 27.7459 29.0769 27.7459C29.1538 27.7459 29.2308 27.7459 29.2308 27.7459C29.3846 27.5934 29.5385 27.3648 29.6154 27.1361C29.7692 26.8312 29.7692 26.2976 29.6923 25.6116C29.6154 24.9256 29.6154 24.392 29.7692 24.0109C29.8461 23.706 30.0769 23.4773 30.2308 23.2486C30.4615 23.0199 30.6923 22.8675 31 22.8675C31.1538 22.8675 31.2308 22.8675 31.3846 22.8675C31.6154 22.9437 31.6923 23.0199 31.7692 23.1724C31.9231 23.2486 31.9231 23.3248 31.8461 23.3248Z" fill="#FFF3A2" stroke="#FFF3A2" stroke-width="0.452" stroke-miterlimit="10"/>
<path d="M35.3846 24.5444C35.3846 24.6207 35.2308 24.6969 35.0769 24.6969C35 24.6969 35 24.6969 34.9231 24.6969C34.8461 24.6207 34.8461 24.6207 34.8461 24.6207H34.7692C34.3846 24.7731 34.1538 25.078 34 25.4591C33.9231 25.6116 33.8461 25.764 33.8461 25.9165C33.8461 25.9927 33.9231 26.4501 34 27.2123C34.0769 27.7459 34 28.2032 33.9231 28.5081C33.8461 28.813 33.6923 29.0417 33.4615 29.1942C33.3846 29.2704 33.2308 29.3466 33 29.4228C32.8461 29.4991 32.6923 29.4991 32.5384 29.4228C32.4615 29.4228 32.4615 29.4228 32.3846 29.3466C32.2308 29.1942 32.2308 29.1179 32.2308 29.0417C32.2308 28.9655 32.3077 28.8893 32.3846 28.8893C32.3846 28.8893 32.4615 28.8893 32.5384 28.8893C32.6154 28.8893 32.6923 28.8893 32.6923 28.813C32.8461 28.6606 33 28.4319 33.0769 28.2032C33.2308 27.8983 33.2308 27.3648 33.1538 26.6787C33.0769 25.9927 33.0769 25.4591 33.2308 25.078C33.3077 24.7731 33.5384 24.5444 33.6923 24.3158C33.9231 24.0871 34.1538 23.9346 34.4615 23.9346C34.6154 23.9346 34.6923 23.9346 34.8461 23.9346C35.0769 24.0109 35.1538 24.0871 35.2308 24.2395C35.3846 24.4682 35.3846 24.5444 35.3846 24.5444Z" fill="#FFF3A2" stroke="#FFF3A2" stroke-width="0.452" stroke-miterlimit="10"/>
<path d="M38.6154 27.8984C38.3077 28.2033 38 28.4319 37.8461 28.5082C37.5384 28.6606 37.3846 28.7368 37.3846 28.7368C37.2308 28.8131 37 28.8131 36.8461 28.8131C36.7692 28.8893 36.7692 29.0417 36.6923 29.118C36.6923 29.1942 36.6154 29.3466 36.5384 29.5753C36.4615 29.804 36.4615 29.8802 36.3846 30.0327C36.2308 30.3376 36.0769 30.5662 35.8461 30.7187L35.7692 30.49C35.6923 30.4138 35.6923 30.3376 35.6923 30.2613C35.7692 29.9564 35.8461 29.5753 36 29.1942C36.0769 28.9655 36.2308 28.5844 36.4615 28.0508C36.6923 27.5172 36.8461 27.1361 36.9231 26.9074C37.0769 26.5263 37.1538 26.1452 37.2308 25.8403C37.1538 25.8403 37.1538 25.8403 37.1538 25.7641C37.1538 25.6878 37.1538 25.6116 37.0769 25.6116C37.1538 25.4592 37.2308 25.3829 37.3077 25.4592C37.3846 25.4592 37.5384 25.5354 37.7692 25.6116C38.3846 25.9165 38.7692 26.3739 38.8461 26.9837C38.9231 27.1361 38.8461 27.3648 38.8461 27.5172C38.8461 27.5935 38.7692 27.7459 38.6154 27.8984ZM38.3846 27.1361C38.4615 26.9837 38.4615 26.755 38.3077 26.6025C38.3077 26.6025 38.1538 26.4501 37.8461 26.2214C37.5384 27.1361 37.2308 27.7459 37.0769 28.127C37.7692 27.8221 38.1538 27.5172 38.3846 27.1361Z" fill="#FFF3A2" stroke="#FFF3A2" stroke-width="0.452" stroke-miterlimit="10"/>
<path d="M42.6923 30.3376C42.1538 30.8712 41.6154 31.0998 41 31.0998C40.9231 31.0998 40.8461 31.0998 40.7692 31.0236C40.4615 30.9474 40.2307 30.6425 40.0769 30.2614C40 29.9565 40 29.6516 40.0769 29.3467C40.2307 28.9655 40.4615 28.6606 40.8461 28.2795C41 28.1271 41.1538 28.0508 41.3846 27.9746C41.6154 27.8984 41.7692 27.8222 41.9231 27.8984C42 27.8984 42.0769 27.9746 42.0769 28.0508C42.1538 28.1271 42.3077 28.2795 42.5384 28.5082C42.7692 28.6606 42.8461 28.8893 42.8461 29.0418C42.9231 29.4229 42.8461 29.7278 42.7692 29.9565C42.8461 30.1851 42.7692 30.2614 42.6923 30.3376ZM42.2308 29.7278C42.3077 29.3467 42.3077 29.118 42.1538 28.9655H42.0769C42 28.9655 41.9231 28.9655 41.7692 29.0418C41.6154 29.118 41.5384 29.1942 41.4615 29.1942C41.3846 29.1942 41.3846 29.1942 41.3077 29.118C41.2308 29.0418 41.2307 29.0418 41.2307 29.0418C41.2307 29.0418 41.2308 29.0418 41.1538 29.0418C40.9231 29.118 40.7692 29.3467 40.6154 29.6516C40.5384 29.8802 40.5384 30.0327 40.5384 30.2614C40.6154 30.49 40.6923 30.6425 40.7692 30.7187C41 30.7949 41.2308 30.7187 41.5384 30.5663C42 30.1089 42.2308 29.9565 42.2308 29.7278Z" fill="#FFF3A2" stroke="#FFF3A2" stroke-width="0.452" stroke-miterlimit="10"/>
<path d="M46.7692 33.6915C46.8461 33.6915 46.8461 33.6915 46.7692 33.6915C46.6923 33.8439 46.5384 33.9201 46.3077 33.9201C46.1538 33.6152 45.9231 33.2341 45.6923 32.6243C45.4615 32.0145 45.2308 31.5572 45.0769 31.3285C45 31.4809 44.8461 31.7858 44.6154 32.3194C44.4615 32.7005 44.2308 33.0054 44.0769 33.2341H44C43.9231 33.2341 43.9231 33.2341 43.8461 33.2341C43.6154 33.0817 43.6154 32.9292 43.6923 32.7005C43.6923 32.6243 43.7692 32.5481 43.8461 32.3956C43.9231 32.2432 44 32.167 44 32.167C44.1538 31.8621 44.2308 31.5572 44.4615 31.176L44.7692 30.3376C45 29.6515 45.3077 29.118 45.5384 28.6606C45.6923 28.3557 46.0769 28.3557 46.5384 28.5082C46.7692 28.5844 47 28.8131 47.0769 29.118C47.1538 29.4229 47.1538 29.7278 47.0769 29.9564C47 30.1851 46.8461 30.4138 46.5384 30.5662C46.3077 30.7187 46.0769 30.7949 45.8461 30.8711C45.7692 30.8711 45.6923 30.9474 45.6154 31.0236C45.6154 31.0998 45.6154 31.176 45.6923 31.3285C45.7692 31.4047 45.7692 31.4809 45.8461 31.6334C45.8461 31.6334 46 32.0145 46.3846 32.6243C46.6154 33.0054 46.7692 33.3866 46.7692 33.6915ZM46.5384 29.804C46.6154 29.7278 46.6154 29.6515 46.6154 29.5753C46.6154 29.4991 46.6154 29.3466 46.6154 29.2704C46.5384 29.1942 46.4615 29.118 46.3077 29.0417C46.1538 28.9655 46.0769 29.0417 46.0769 29.0417C46 29.118 45.9231 29.2704 45.8461 29.4229C45.8461 29.4991 45.7692 29.6515 45.6923 29.9564C45.6154 30.1851 45.5384 30.3376 45.5384 30.4138C46 30.2613 46.3846 30.1089 46.5384 29.804Z" fill="#FFF3A2"/>
<path d="M46.7692 33.6915C46.8461 33.6915 46.8461 33.6915 46.7692 33.6915ZM46.7692 33.6915C46.6923 33.8439 46.5384 33.9201 46.3077 33.9201C46.1538 33.6152 45.9231 33.2341 45.6923 32.6243C45.4615 32.0145 45.2308 31.5572 45.0769 31.3285C45 31.4809 44.8461 31.7858 44.6154 32.3194C44.4615 32.7005 44.2308 33.0054 44.0769 33.2341H44C43.9231 33.2341 43.9231 33.2341 43.8461 33.2341C43.6154 33.0817 43.6154 32.9292 43.6923 32.7005C43.6923 32.6243 43.7692 32.5481 43.8461 32.3956C43.9231 32.2432 44 32.167 44 32.167C44.1538 31.8621 44.2308 31.5572 44.4615 31.176L44.7692 30.3376C45 29.6515 45.3077 29.118 45.5384 28.6606C45.6923 28.3557 46.0769 28.3557 46.5384 28.5082C46.7692 28.5844 47 28.8131 47.0769 29.118C47.1538 29.4229 47.1538 29.7278 47.0769 29.9564C47 30.1851 46.8461 30.4138 46.5384 30.5662C46.3077 30.7187 46.0769 30.7949 45.8461 30.8711C45.7692 30.8711 45.6923 30.9474 45.6154 31.0236C45.6154 31.0998 45.6154 31.176 45.6923 31.3285C45.7692 31.4047 45.7692 31.4809 45.8461 31.6334C45.8461 31.6334 46 32.0145 46.3846 32.6243C46.6154 33.0054 46.7692 33.3866 46.7692 33.6915ZM46.5384 29.804C46.6154 29.7278 46.6154 29.6515 46.6154 29.5753C46.6154 29.4991 46.6154 29.3466 46.6154 29.2704C46.5384 29.1942 46.4615 29.118 46.3077 29.0417C46.1538 28.9655 46.0769 29.0417 46.0769 29.0417C46 29.118 45.9231 29.2704 45.8461 29.4229C45.8461 29.4991 45.7692 29.6515 45.6923 29.9564C45.6154 30.1851 45.5384 30.3376 45.5384 30.4138C46 30.2613 46.3846 30.1089 46.5384 29.804Z" stroke="#FFF3A2" stroke-width="0.452" stroke-miterlimit="10"/>
<path d="M53.3077 30.7187C53.2308 30.8711 53.0769 30.9474 52.9231 30.9474C52.5385 30.9474 52 30.7949 51.1538 30.7187C50.6154 31.9383 50.1538 32.9292 49.8462 33.6915C49.6923 33.9964 49.6154 34.3013 49.5385 34.6062C49.5385 34.6824 49.4615 34.7586 49.4615 34.8348C49.3846 34.9111 49.3077 34.9111 49.3077 34.9111C49.1538 34.8348 49.0769 34.7586 49 34.6062C48.9231 34.4537 48.9231 34.3013 49 34.1488C49.0769 33.9964 49.1538 33.7677 49.2308 33.539C49.3846 33.2341 49.5385 32.7005 49.8462 32.0145C50.1538 31.3285 50.3846 30.8711 50.4615 30.49C50.3077 30.4138 50.1538 30.4138 49.9231 30.3376C49.6154 30.2613 49.4615 30.2613 49.3077 30.1851C49.0769 30.1089 48.9231 29.9564 48.7692 29.804C48.7692 29.6515 48.7692 29.5753 48.7692 29.5753L48.8461 29.4991C49 29.4991 49.3846 29.5753 49.8462 29.6515C50.3077 29.7278 50.6154 29.804 50.9231 29.7278C51.0769 29.8802 51.2308 29.9564 51.4615 30.0327C51.6923 30.1089 51.9231 30.1851 52.1538 30.1851C52.2308 30.1851 52.3846 30.1851 52.6154 30.2613C52.7692 30.2613 52.9231 30.3376 53.0769 30.3376C53.1538 30.3376 53.1538 30.4138 53.1538 30.49C53.3077 30.49 53.3846 30.5662 53.3077 30.7187Z" fill="#FFF3A2" stroke="#FFF3A2" stroke-width="0.452" stroke-miterlimit="10"/>
<path d="M38.3846 15.9311L41.0769 6.25049L48.1538 8.38479L45.3846 17.8367L38.3846 15.9311Z" fill="#37AF9F"/>
<path d="M39 15.4737L41.3846 6.78406L47.6923 8.68968L45.3077 17.1507L39 15.4737Z" fill="#FCFBF6"/>
</g>
<defs>
<clipPath id="clip0_1543_177">
<rect width="60" height="84" fill="white"/>
</clipPath>
</defs>
</svg>
