<svg width="57" height="60" viewBox="0 0 57 60" fill="none" xmlns="http://www.w3.org/2000/svg">
<g clip-path="url(#clip0_1543_117)">
<path d="M48.5304 49.5473C46.6672 50.3704 44.7192 50.8642 42.7712 51.358C41.3313 51.7695 39.8068 52.0988 38.367 52.6749C37.8588 52.8395 37.3507 53.0864 36.8425 53.3333C35.2333 54.0741 33.7088 54.8971 32.2689 55.7202C31.1679 56.2963 30.0669 56.9547 28.8811 57.5309C28.4576 57.7778 28.0342 57.9424 27.6107 58.107C24.0535 59.6708 20.9198 60.2469 18.0401 59.8354C13.3819 59.1769 9.48588 55.5555 8.46953 51.1111C8.13075 49.6296 8.13075 48.0658 8.04605 46.5843C8.04605 44.856 7.96136 43.2099 7.53788 41.6461C6.94501 39.6708 5.58989 37.9424 4.15007 36.214C2.87964 34.6502 1.60921 33.0864 0.846947 31.1934C-1.01635 26.6667 0.42347 20.7407 4.48885 16.7901C6.52154 14.8148 9.23179 13.251 12.2808 12.2634C13.636 11.7695 15.1605 11.4403 16.7697 11.1934C17.1085 11.1111 17.4472 11.1111 17.786 11.1111C18.7177 11.0288 19.4799 10.9465 20.0728 10.4527C21.0891 9.62962 21.8514 8.64196 22.6137 7.4897C22.8677 7.07818 23.1218 6.74896 23.3759 6.33744C24.9851 4.19752 27.1025 2.30451 29.5587 1.06995C29.8128 0.905338 30.1516 0.740729 30.4056 0.658424C31.9302 -1.22115e-05 33.2006 -0.246926 34.471 0.0822923C35.7414 0.329206 36.9272 1.15225 37.8588 2.38682C38.367 3.04526 38.7905 3.786 39.1293 4.44443C39.6374 5.43209 40.1456 6.33744 40.9079 7.07818C42.1783 8.39505 43.7875 9.3004 45.4814 9.87653C45.8202 9.95884 46.2437 10.1234 46.5825 10.2057C47.4294 10.4527 48.2764 10.6996 49.1233 11.1111C51.6642 12.428 53.0193 15.7202 52.0877 18.1893C51.156 20.4938 50.9019 22.2222 52.0877 24.5267C52.5958 25.5967 53.2734 26.5843 53.8663 27.572C54.5438 28.642 55.2214 29.7119 55.8143 30.8642C57.2541 33.9095 57.4235 37.5308 56.4071 40.7407C55.3908 43.9506 53.104 46.8313 50.1397 48.5597C49.6315 49.0535 49.0386 49.3004 48.5304 49.5473ZM36.2496 52.1811C36.8425 51.9341 37.3507 51.6872 37.8588 51.5226C39.2987 50.9465 40.9079 50.535 42.3477 50.2057C44.211 49.7119 46.159 49.2181 47.8529 48.395C48.3611 48.1481 48.8692 47.9012 49.2927 47.6543C52.003 46.0905 54.0357 43.5391 54.9673 40.5761C55.8989 37.6955 55.7296 34.4033 54.3744 31.6049C53.8663 30.535 53.1887 29.465 52.5111 28.4774C51.8336 27.4897 51.156 26.4197 50.6478 25.2675C49.2927 22.4691 49.6315 20.4115 50.6478 17.8601C51.4101 15.8848 50.055 13.3333 48.2764 12.428C47.5988 12.0988 46.8365 11.8518 45.9896 11.6049C45.5661 11.5226 45.2273 11.358 44.8039 11.2757C42.8559 10.6173 41.0773 9.54731 39.6374 8.14814C38.7058 7.24279 38.1129 6.17283 37.6047 5.18517C37.266 4.52674 36.9272 3.8683 36.419 3.20986C35.7414 2.22221 34.8098 1.56377 33.8781 1.39916C32.7771 1.15225 31.5067 1.39916 29.9822 2.30451C27.7801 3.53908 25.7474 5.18517 24.2229 7.24279C23.9688 7.572 23.7147 7.98353 23.4606 8.31275C22.6137 9.46501 21.8514 10.6996 20.581 11.6049C20.3269 11.7695 20.0728 11.9341 19.8187 12.0164C19.0565 12.3457 18.2942 12.428 17.6166 12.5103C17.3625 12.5103 17.0238 12.5926 16.685 12.5926C15.1605 12.8395 13.8053 13.1687 12.4502 13.5802C9.57057 14.4856 7.02971 15.9671 5.16641 17.7778C1.52451 21.3169 0.0846884 26.6667 1.7786 30.6996C2.45616 32.428 3.64189 33.9095 4.91233 35.3909C6.35215 37.2016 7.79197 39.0123 8.55423 41.2346C9.0624 42.9629 9.14709 44.7737 9.14709 46.502C9.14709 47.9835 9.14709 49.3827 9.48588 50.7819C10.3328 54.6502 13.9747 57.8601 17.9554 58.5185C20.4963 58.93 23.3759 58.3539 26.679 56.8724C27.1025 56.7078 27.526 56.4609 27.8648 56.2963C28.9658 55.7202 30.0669 55.144 31.1679 54.4856C33.0312 53.7448 34.6404 52.8395 36.2496 52.1811Z" fill="#110F0F"/>
<path d="M22.0208 22.3045L17.1085 11.9341C7.4532 17.3662 3.13373 28.8066 6.86033 39.0123L17.5319 34.2387C16.3462 29.7119 18.1248 24.9383 22.0208 22.3045Z" fill="#F05A30"/>
<path d="M38.367 24.9383L49.0386 20.1646C43.4487 10.7819 31.6761 6.50205 21.1738 10.1235L26.0862 20.4938C30.6597 19.3416 35.572 21.1523 38.367 24.9383Z" fill="#E23C2B"/>
<path d="M35.6567 40.7407L40.5691 51.1111C50.2243 45.679 54.5438 34.2387 50.9019 24.0329L40.2303 28.8066C41.3313 33.3333 39.5527 38.107 35.6567 40.7407Z" fill="#E23C2B"/>
<path d="M19.3105 38.107L8.63892 42.8807C14.2288 52.2634 26.0015 56.4609 36.5037 52.9218L31.5914 42.5514C27.0178 43.7037 22.1055 41.893 19.3105 38.107Z" fill="#F05A30"/>
<path d="M33.7088 41.893C33.0313 42.2222 32.3537 42.4691 31.5914 42.6337L36.5038 53.0041C37.1813 52.7572 37.8589 52.5103 38.5365 52.1811C39.214 51.8518 39.8916 51.5226 40.4844 51.1934L35.5721 40.823C35.0639 41.1522 34.4711 41.5638 33.7088 41.893Z" fill="white"/>
<path d="M23.9687 21.1523C24.6463 20.823 25.3239 20.5761 26.0861 20.4115L21.1738 10.1234C20.4962 10.3704 19.8187 10.6173 19.1411 10.9465C18.4635 11.2757 17.786 11.6049 17.1931 11.9341L22.0208 22.3045C22.6136 21.893 23.2912 21.4815 23.9687 21.1523Z" fill="white"/>
<path d="M49.0387 20.1646L38.3671 24.9383C38.7905 25.5144 39.1293 26.1728 39.4681 26.8313C39.8069 27.4897 40.061 28.1481 40.2304 28.8889L50.902 24.1152C50.6479 23.4568 50.3938 22.7984 50.055 22.1399C49.7162 21.3992 49.3775 20.7407 49.0387 20.1646Z" fill="white"/>
<path d="M18.2095 36.2963C17.8708 35.6379 17.6167 34.9794 17.4473 34.2387L6.86035 39.0123C7.11444 39.6708 7.36852 40.3292 7.70731 40.9876C8.04609 41.6461 8.38487 42.3045 8.72365 42.8807L19.3953 38.107C18.8871 37.5309 18.5483 36.9547 18.2095 36.2963Z" fill="white"/>
</g>
<defs>
<clipPath id="clip0_1543_117">
<rect width="57" height="60" fill="white"/>
</clipPath>
</defs>
</svg>
